<svg width="20" height="20" viewBox="0 0 20 20" fill="none" xmlns="http://www.w3.org/2000/svg">
<path d="M4.85609 8.29251C5.56849 6.13384 7.59712 4.5835 9.99997 4.5835C11.2916 4.5835 12.4583 5.04183 13.375 5.79183L16.0416 3.12516C14.4166 1.7085 12.3333 0.833496 9.99997 0.833496C6.38683 0.833496 3.27603 2.8947 1.78052 5.91338L4.85609 8.29251Z" fill="#EA4335"/>
<path d="M13.0866 14.593C12.2541 15.1305 11.1963 15.4167 9.99995 15.4167C7.60629 15.4167 5.584 13.8782 4.86431 11.7324L1.77856 14.0754C3.27222 17.0993 6.38294 19.1667 9.99995 19.1667C12.2403 19.1667 14.3811 18.3702 15.9844 16.8747L13.0866 14.593Z" fill="#34A853"/>
<path d="M15.9845 16.8748C17.6612 15.3108 18.75 12.9821 18.75 10.0002C18.75 9.4585 18.6667 8.87516 18.5417 8.3335H10V11.8752H14.9167C14.6741 13.0661 14.0229 13.9886 13.0867 14.5931L15.9845 16.8748Z" fill="#4A90E2"/>
<path d="M4.86428 11.7323C4.68197 11.1887 4.58325 10.6062 4.58325 9.99987C4.58325 9.40272 4.679 8.82869 4.85604 8.29222L1.78047 5.91309C1.16676 7.14326 0.833252 8.52968 0.833252 9.99987C0.833252 11.4662 1.17302 12.8493 1.77854 14.0752L4.86428 11.7323Z" fill="#FBBC05"/>
</svg>
