<svg width="21" height="17" viewBox="0 0 21 17" fill="none" xmlns="http://www.w3.org/2000/svg">
<path d="M10.5 2.253C11.668 1.477 13.254 1 15 1C16.747 1 18.332 1.477 19.5 2.253V15.253C18.332 14.477 16.747 14 15 14C13.254 14 11.668 14.477 10.5 15.253M10.5 2.253V15.253V2.253ZM10.5 2.253C9.332 1.477 7.746 1 6 1C4.254 1 2.668 1.477 1.5 2.253V15.253C2.668 14.477 4.254 14 6 14C7.746 14 9.332 14.477 10.5 15.253V2.253Z" stroke="#3E494A" stroke-width="2" stroke-linecap="round" stroke-linejoin="round"/>
</svg>
