<svg width="16" height="20" viewBox="0 0 16 20" fill="none" xmlns="http://www.w3.org/2000/svg">
<path d="M12.9673 10.5734C12.9931 13.3478 15.4012 14.2711 15.4279 14.2829C15.4075 14.348 15.0431 15.5986 14.1592 16.8904C13.3951 18.0072 12.602 19.12 11.3527 19.143C10.1251 19.1656 9.73038 18.415 8.32692 18.415C6.92389 18.415 6.48532 19.12 5.32329 19.1656C4.11739 19.2113 3.19911 17.9579 2.42864 16.8452C0.854263 14.5691 -0.348885 10.4134 1.26664 7.60822C2.0692 6.21517 3.50343 5.33303 5.06016 5.31041C6.24432 5.28782 7.36203 6.10708 8.08592 6.10708C8.80935 6.10708 10.1676 5.12185 11.5955 5.26655C12.1932 5.29143 13.8712 5.50801 14.9486 7.0851C14.8618 7.13892 12.9465 8.25391 12.9673 10.5734V10.5734ZM10.6602 3.76069C11.3005 2.98573 11.7314 1.90691 11.6138 0.833496C10.691 0.870586 9.57508 1.44844 8.91316 2.22298C8.31995 2.90886 7.80043 4.00667 7.9406 5.05884C8.9692 5.13842 10.02 4.53614 10.6602 3.76069" fill="#3E494A"/>
</svg>
