<svg width="17" height="20" viewBox="0 0 17 20" fill="none" xmlns="http://www.w3.org/2000/svg">
<path d="M12.5 5C12.5 6.06087 12.0786 7.07828 11.3284 7.82843C10.5783 8.57857 9.56087 9 8.5 9C7.43913 9 6.42172 8.57857 5.67157 7.82843C4.92143 7.07828 4.5 6.06087 4.5 5C4.5 3.93913 4.92143 2.92172 5.67157 2.17157C6.42172 1.42143 7.43913 1 8.5 1C9.56087 1 10.5783 1.42143 11.3284 2.17157C12.0786 2.92172 12.5 3.93913 12.5 5V5ZM8.5 12C6.64348 12 4.86301 12.7375 3.55025 14.0503C2.2375 15.363 1.5 17.1435 1.5 19H15.5C15.5 17.1435 14.7625 15.363 13.4497 14.0503C12.137 12.7375 10.3565 12 8.5 12V12Z" stroke="#B1BEBF" stroke-width="2" stroke-linecap="round" stroke-linejoin="round"/>
</svg>
